<svg xmlns="http://www.w3.org/2000/svg" viewBox="0 0 800 260" role="img" aria-label="Original cartoon elf traveler with sparkles">
  <defs>
    <linearGradient id="skyG" x1="0%" y1="0%" x2="0%" y2="100%">
      <stop offset="0%" style="stop-color:#e8faf6"/>
      <stop offset="100%" style="stop-color:#d4eeea"/>
    </linearGradient>
    <linearGradient id="robeG" x1="0%" y1="0%" x2="100%" y2="100%">
      <stop offset="0%" style="stop-color:#ffffff"/>
      <stop offset="100%" style="stop-color:#f3fffb"/>
    </linearGradient>
  </defs>
  <rect width="800" height="260" rx="18" fill="url(#skyG)" stroke="#7ec9b8" stroke-width="4"/>
  <ellipse cx="120" cy="210" rx="140" ry="36" fill="#bfe8dc" opacity=".55"/>
  <ellipse cx="420" cy="224" rx="200" ry="42" fill="#aaddcf" opacity=".45"/>
  <ellipse cx="700" cy="208" rx="160" ry="38" fill="#c6f0e4" opacity=".5"/>
  <g transform="translate(590 125)" opacity=".55">
    <circle r="58" fill="none" stroke="#7ec9b8" stroke-width="4" stroke-dasharray="14 18"/>
    <circle r="44" fill="none" stroke="#61b6a8" stroke-width="3"/>
    <path d="M0-52 L0 52 M-52 0 L52 0" stroke="#7ec9b8" stroke-width="3" stroke-linecap="round"/>
  </g>
  <g transform="translate(180 78) rotate(-8)">
    <ellipse cx="-10" cy="0" rx="18" ry="26" fill="#fff5e6" stroke="#e8c99a" stroke-width="2"/>
    <ellipse cx="10" cy="0" rx="18" ry="26" fill="#fff5e6" stroke="#e8c99a" stroke-width="2"/>
    <path d="M0-4 Q0 10 0 22" stroke="#c9a66b" stroke-width="3" fill="none" stroke-linecap="round"/>
  </g>
  <g transform="translate(655 95) rotate(12)">
    <ellipse cx="-9" cy="0" rx="14" ry="20" fill="#ffffff" stroke="#b8dfd4" stroke-width="2"/>
    <ellipse cx="9" cy="0" rx="14" ry="20" fill="#ffffff" stroke="#b8dfd4" stroke-width="2"/>
    <path d="M0-3 Q0 8 0 16" stroke="#7ec9b8" stroke-width="2.5" fill="none" stroke-linecap="round"/>
  </g>
  <g transform="translate(360 200)">
    <path d="M-18 8 L-22 46" stroke="#5a6b7a" stroke-width="7" stroke-linecap="round"/>
    <path d="M18 8 L22 46" stroke="#5a6b7a" stroke-width="7" stroke-linecap="round"/>
    <path d="M-46 6 Q-52 36 -28 58 L28 58 Q52 36 46 6 Q40 -50 0 -58 Q-40 -50 -46 6 Z" fill="url(#robeG)" stroke="#7ec9b8" stroke-width="4"/>
    <path d="M-40 2 Q-70 30 -78 70" fill="none" stroke="#9fd6c9" stroke-width="6" stroke-linecap="round"/>
    <path d="M46 -30 L56 70" stroke="#c9a66b" stroke-width="6" stroke-linecap="round"/>
    <circle cx="46" cy="-34" r="10" fill="#bfe8ff" stroke="#7ec9b8" stroke-width="3"/>
    <path d="M-34 -48 Q-52 -78 -28 -86" fill="#ffe8dc" stroke="#e8b8a8" stroke-width="3" stroke-linejoin="round"/>
    <path d="M34 -48 Q52 -78 28 -86" fill="#ffe8dc" stroke="#e8b8a8" stroke-width="3" stroke-linejoin="round"/>
    <ellipse cx="0" cy="-40" rx="34" ry="38" fill="#ffe8dc" stroke="#e8b8a8" stroke-width="3"/>
    <path d="M-38 -62 Q0 -104 38 -62 Q34 -28 -4 -34 Q0 -74 -38 -62 Z" fill="#f8f8ff" stroke="#c8cfe8" stroke-width="3"/>
    <ellipse cx="-12" cy="-38" rx="5" ry="7" fill="#2f3f4f"/>
    <ellipse cx="12" cy="-38" rx="5" ry="7" fill="#2f3f4f"/>
    <ellipse cx="-20" cy="-28" rx="7" ry="4" fill="#ffb7c8" opacity=".45"/>
    <ellipse cx="20" cy="-28" rx="7" ry="4" fill="#ffb7c8" opacity=".45"/>
    <path d="M-10 -22 Q0 -14 10 -22" fill="none" stroke="#cf8a82" stroke-width="2.5" stroke-linecap="round"/>
  </g>
  <g fill="#7ec9b8">
    <path d="M250 118l6 14 14 6-14 6-6 14-6-14-14-6 14-6z" opacity=".7"/>
    <path d="M720 148l5 11 11 5-11 5-5 11-5-11-11-5 11-5z" opacity=".55"/>
    <path d="M95 148l4 9 9 4-9 4-4 9-4-9-9-4 9-4z" opacity=".65"/>
  </g>
</svg>
