<svg xmlns="http://www.w3.org/2000/svg" viewBox="0 0 900 270" role="img" aria-label="Soft fantasy meadow banner with small elf traveler">
  <defs>
    <linearGradient id="sky" x1="0%" y1="0%" x2="100%" y2="100%">
      <stop offset="0%" stop-color="#eaf1ff"/>
      <stop offset="45%" stop-color="#f7fffb"/>
      <stop offset="100%" stop-color="#dff7f0"/>
    </linearGradient>
    <linearGradient id="sun" x1="0%" y1="0%" x2="100%" y2="100%">
      <stop offset="0%" stop-color="#fff7e8" stop-opacity="0.9"/>
      <stop offset="100%" stop-color="#dff7f0" stop-opacity="0"/>
    </linearGradient>
    <linearGradient id="hill1" x1="0%" y1="0%" x2="0%" y2="100%">
      <stop offset="0%" stop-color="#cdeee3"/>
      <stop offset="100%" stop-color="#91ccb6"/>
    </linearGradient>
    <linearGradient id="hill2" x1="0%" y1="0%" x2="0%" y2="100%">
      <stop offset="0%" stop-color="#bfe6d9"/>
      <stop offset="100%" stop-color="#73bca4"/>
    </linearGradient>
    <linearGradient id="robe" x1="0%" y1="0%" x2="0%" y2="100%">
      <stop offset="0%" stop-color="#ffffff"/>
      <stop offset="100%" stop-color="#edf8f4"/>
    </linearGradient>
    <linearGradient id="gem" x1="20%" y1="20%" x2="80%" y2="80%">
      <stop offset="0%" stop-color="#e9fffa"/>
      <stop offset="100%" stop-color="#5ec4b4"/>
    </linearGradient>
    <linearGradient id="hair" x1="0%" y1="0%" x2="100%" y2="100%">
      <stop offset="0%" stop-color="#ffffff"/>
      <stop offset="100%" stop-color="#dfe6fb"/>
    </linearGradient>
    <radialGradient id="glow" cx="72%" cy="22%" r="45%">
      <stop offset="0%" stop-color="#ffffff" stop-opacity="0.55"/>
      <stop offset="100%" stop-color="#ffffff" stop-opacity="0"/>
    </radialGradient>
  </defs>

  <rect width="900" height="270" rx="18" fill="url(#sky)"/>
  <rect width="900" height="270" rx="18" fill="url(#glow)"/>
  <circle cx="646" cy="56" r="68" fill="url(#sun)"/>

  <path d="M0 198 C190 150 360 230 520 188 C680 148 820 210 900 178 L900 270 L0 270 Z" fill="url(#hill1)" opacity="0.38"/>
  <path d="M0 222 C220 190 420 252 640 214 C760 194 840 234 900 218 L900 270 L0 270 Z" fill="url(#hill2)" opacity="0.55"/>

  <g fill="#ffffff" opacity="0.78">
    <ellipse cx="140" cy="68" rx="66" ry="22"/>
    <ellipse cx="186" cy="68" rx="52" ry="20"/>
    <ellipse cx="108" cy="72" rx="42" ry="18"/>
  </g>
  <g fill="#ffffff" opacity="0.55">
    <ellipse cx="752" cy="54" rx="74" ry="24"/>
    <ellipse cx="804" cy="54" rx="56" ry="22"/>
    <ellipse cx="706" cy="58" rx="46" ry="18"/>
  </g>

  <g opacity="0.32" stroke="#7fbbaa" stroke-width="1.6" fill="none">
    <g transform="translate(704 154) rotate(12)">
      <circle r="44"/>
      <circle r="34" opacity="0.75"/>
      <path d="M0,-46 L0,46 M-46,0 L46,0" stroke-linecap="round"/>
    </g>
  </g>

  <g opacity="0.34" stroke="#9ccfc0" stroke-width="1.2" fill="#ffe8f1" stroke-linejoin="round">
    <path d="M226 114l6 13 13 6-13 6-6 13-6-13-13-6 13-6z" transform="rotate(-14 226 114)"/>
    <path d="M596 138l5 11 11 5-11 5-5 11-5-11-11-5 11-5z" transform="rotate(18 596 138)"/>
    <path d="M472 92l5 11 11 5-11 5-5 11-5-11-11-5 11-5z" transform="rotate(8 472 92)"/>
  </g>

  <g transform="translate(450 268)">
    <ellipse cx="0" cy="10" rx="54" ry="9" fill="#1f3f38" opacity="0.08"/>

    <path d="M-68 26 C-106 138 -146 226 -174 294" fill="none" stroke="#a7dccd" stroke-width="9" stroke-linecap="round" opacity="0.78"/>

    <path d="M-42 38 C-50 134 -54 174 -10 186 L10 186 C54 174 50 134 42 38 C38 6 22 -26 0 -30 C-22 -26 -38 6 -42 38 Z"
          fill="url(#robe)" stroke="#7fb7a8" stroke-width="2.6" stroke-linejoin="round"/>
    <path d="M-28 72 C0 138 0 138 28 72" fill="none" stroke="#d9efe8" stroke-width="7" stroke-linecap="round" opacity="0.46"/>

    <path d="M-16 12 L-18 76" stroke="#3f4f58" stroke-width="9" stroke-linecap="round"/>
    <path d="M16 12 L18 76" stroke="#3f4f58" stroke-width="9" stroke-linecap="round"/>

    <path d="M58 -88 L74 208" stroke="#c2925c" stroke-width="7" stroke-linecap="round"/>
    <circle cx="62" cy="-96" r="12" fill="url(#gem)" stroke="#5aa896" stroke-width="2.4"/>

    <ellipse cx="0" cy="-174" rx="96" ry="70" fill="url(#hair)" stroke="#c6d4f2" stroke-width="2"/>

    <path d="M-54 -154 C-76 -182 -112 -226 -138 -274" stroke="#e8b9ac" stroke-width="13" stroke-linecap="round" fill="#fde7dc"/>
    <path d="M54 -154 C76 -182 112 -226 138 -274" stroke="#e8b9ac" stroke-width="13" stroke-linecap="round" fill="#fde7dc"/>

    <circle cx="0" cy="-134" r="44" fill="#fde7dc" stroke="#e8b9ac" stroke-width="2.4"/>

    <path d="M-66 -174 C-30 -226 38 -226 66 -174" fill="none" stroke="#eef3ff" stroke-width="9" stroke-linecap="round" opacity="0.6"/>

    <ellipse cx="-18" cy="-140" rx="9" ry="11" fill="#ffffff" stroke="#e6c9c0" stroke-width="1.1"/>
    <ellipse cx="18" cy="-140" rx="9" ry="11" fill="#ffffff" stroke="#e6c9c0" stroke-width="1.1"/>
    <ellipse cx="-18" cy="-138" rx="5.2" ry="7.4" fill="#2f4a47"/>
    <ellipse cx="18" cy="-138" rx="5.2" ry="7.4" fill="#2f4a47"/>
    <circle cx="-16" cy="-144" r="2.2" fill="#ffffff" opacity="0.92"/>
    <circle cx="20" cy="-144" r="2.2" fill="#ffffff" opacity="0.92"/>

    <ellipse cx="-32" cy="-122" rx="9" ry="4.8" fill="#ffb7c8" opacity="0.3"/>
    <ellipse cx="32" cy="-122" rx="9" ry="4.8" fill="#ffb7c8" opacity="0.3"/>

    <path d="M-10 -118 Q0 -112 10 -118" fill="none" stroke="#d48f86" stroke-width="2" stroke-linecap="round"/>
  </g>

  <rect x="10" y="10" width="880" height="250" rx="16" fill="none" stroke="#b7dece" stroke-opacity="0.55" stroke-width="1.5"/>
</svg>
